<mxfile host="app.diagrams.net" agent="Mozilla/5.0 (Windows NT 10.0; Win64; x64) AppleWebKit/537.36 (KHTML, like Gecko) Chrome/137.0.0.0 Safari/537.36" version="26.1.3">
  <diagram name="Seite-1" id="nD6jiJCX5i-z-jnRRKS7">
    <mxGraphModel dx="1687" dy="962" grid="1" gridSize="10" guides="1" tooltips="1" connect="1" arrows="1" fold="1" page="1" pageScale="1" pageWidth="1169" pageHeight="827" math="0" shadow="0">
      <root>
        <mxCell id="0" />
        <mxCell id="1" parent="0" />
        <mxCell id="_smzAnieDaN4sx0Uvykq-1" value="" style="text;whiteSpace=wrap;html=1;" parent="1" vertex="1">
          <mxGeometry width="700" height="380" as="geometry" />
        </mxCell>
        <mxCell id="_smzAnieDaN4sx0Uvykq-2" value="&lt;font style=&quot;font-size: 36px;&quot;&gt;Klassendiagramm&lt;/font&gt;" style="text;html=1;align=center;verticalAlign=middle;whiteSpace=wrap;rounded=0;" parent="1" vertex="1">
          <mxGeometry x="1150" y="20" width="60" height="30" as="geometry" />
        </mxCell>
        <mxCell id="_smzAnieDaN4sx0Uvykq-7" value="Artist" style="swimlane;fontStyle=1;align=center;verticalAlign=top;childLayout=stackLayout;horizontal=1;startSize=26;horizontalStack=0;resizeParent=1;resizeParentMax=0;resizeLast=0;collapsible=1;marginBottom=0;whiteSpace=wrap;html=1;" parent="1" vertex="1">
          <mxGeometry x="280" y="680" width="180" height="310" as="geometry" />
        </mxCell>
        <mxCell id="_smzAnieDaN4sx0Uvykq-8" value="&lt;div&gt;- ArtistID: int&lt;/div&gt;&lt;div&gt;- FirstName: string&lt;/div&gt;&lt;div&gt;- LastName: string&lt;/div&gt;&lt;div&gt;- Nationality: string&lt;/div&gt;&lt;div&gt;- YearOfBirth: int&lt;/div&gt;&lt;div&gt;- YearOfDeath: int&lt;/div&gt;&lt;div&gt;- Details: string&lt;/div&gt;&lt;div&gt;- ArtistLink: string&lt;/div&gt;" style="text;strokeColor=none;fillColor=none;align=left;verticalAlign=top;spacingLeft=4;spacingRight=4;overflow=hidden;rotatable=0;points=[[0,0.5],[1,0.5]];portConstraint=eastwest;whiteSpace=wrap;html=1;" parent="_smzAnieDaN4sx0Uvykq-7" vertex="1">
          <mxGeometry y="26" width="180" height="134" as="geometry" />
        </mxCell>
        <mxCell id="_smzAnieDaN4sx0Uvykq-9" value="" style="line;strokeWidth=1;fillColor=none;align=left;verticalAlign=middle;spacingTop=-1;spacingLeft=3;spacingRight=3;rotatable=0;labelPosition=right;points=[];portConstraint=eastwest;strokeColor=inherit;" parent="_smzAnieDaN4sx0Uvykq-7" vertex="1">
          <mxGeometry y="160" width="180" height="8" as="geometry" />
        </mxCell>
        <mxCell id="_smzAnieDaN4sx0Uvykq-10" value="&lt;div&gt;+ __construct(...)&lt;/div&gt;&lt;div&gt;+ getArtistID(): int&lt;/div&gt;&lt;div&gt;&lt;span style=&quot;background-color: transparent; color: light-dark(rgb(0, 0, 0), rgb(255, 255, 255));&quot;&gt;+ getFirstName(): string&lt;/span&gt;&lt;/div&gt;&lt;div&gt;&lt;span style=&quot;background-color: transparent; color: light-dark(rgb(0, 0, 0), rgb(255, 255, 255));&quot;&gt;+ getLastName(): string&lt;/span&gt;&lt;/div&gt;&lt;div&gt;&lt;span style=&quot;background-color: transparent; color: light-dark(rgb(0, 0, 0), rgb(255, 255, 255));&quot;&gt;+ getNationality(): string&lt;/span&gt;&lt;/div&gt;&lt;div&gt;&lt;span style=&quot;background-color: transparent; color: light-dark(rgb(0, 0, 0), rgb(255, 255, 255));&quot;&gt;+ getYearOfBirth(): int&lt;/span&gt;&lt;/div&gt;&lt;div&gt;&lt;span style=&quot;background-color: transparent; color: light-dark(rgb(0, 0, 0), rgb(255, 255, 255));&quot;&gt;+ getYearOfDeath(): int&lt;/span&gt;&lt;/div&gt;&lt;div&gt;&lt;span style=&quot;background-color: transparent; color: light-dark(rgb(0, 0, 0), rgb(255, 255, 255));&quot;&gt;+ getDetails(): string&lt;/span&gt;&lt;/div&gt;&lt;div&gt;&lt;span style=&quot;background-color: transparent; color: light-dark(rgb(0, 0, 0), rgb(255, 255, 255));&quot;&gt;+ getArtistLink(): string&lt;/span&gt;&lt;/div&gt;&lt;div&gt;&lt;br&gt;&lt;/div&gt;" style="text;strokeColor=none;fillColor=none;align=left;verticalAlign=top;spacingLeft=4;spacingRight=4;overflow=hidden;rotatable=0;points=[[0,0.5],[1,0.5]];portConstraint=eastwest;whiteSpace=wrap;html=1;" parent="_smzAnieDaN4sx0Uvykq-7" vertex="1">
          <mxGeometry y="168" width="180" height="142" as="geometry" />
        </mxCell>
        <mxCell id="_smzAnieDaN4sx0Uvykq-11" value="Artwork" style="swimlane;fontStyle=1;align=center;verticalAlign=top;childLayout=stackLayout;horizontal=1;startSize=26;horizontalStack=0;resizeParent=1;resizeParentMax=0;resizeLast=0;collapsible=1;marginBottom=0;whiteSpace=wrap;html=1;" parent="1" vertex="1">
          <mxGeometry y="444" width="200" height="390" as="geometry" />
        </mxCell>
        <mxCell id="_smzAnieDaN4sx0Uvykq-12" value="&lt;div&gt;- ArtWorkID: int&lt;/div&gt;&lt;div&gt;- Title: string&lt;/div&gt;&lt;div&gt;- YearOfWork: int&lt;/div&gt;&lt;div&gt;- ImageFileName: string&lt;/div&gt;&lt;div&gt;- ArtistID: int&lt;/div&gt;&lt;div&gt;- Description: string&lt;/div&gt;&lt;div&gt;- Excerpt: string&lt;/div&gt;&lt;div&gt;- Medium: string&lt;/div&gt;&lt;div&gt;- OriginalHome: string&lt;/div&gt;&lt;div&gt;- ArtWorkLink: string&lt;/div&gt;&lt;div&gt;- GoogleLink: string&lt;/div&gt;" style="text;strokeColor=none;fillColor=none;align=left;verticalAlign=top;spacingLeft=4;spacingRight=4;overflow=hidden;rotatable=0;points=[[0,0.5],[1,0.5]];portConstraint=eastwest;whiteSpace=wrap;html=1;" parent="_smzAnieDaN4sx0Uvykq-11" vertex="1">
          <mxGeometry y="26" width="200" height="174" as="geometry" />
        </mxCell>
        <mxCell id="_smzAnieDaN4sx0Uvykq-13" value="" style="line;strokeWidth=1;fillColor=none;align=left;verticalAlign=middle;spacingTop=-1;spacingLeft=3;spacingRight=3;rotatable=0;labelPosition=right;points=[];portConstraint=eastwest;strokeColor=inherit;" parent="_smzAnieDaN4sx0Uvykq-11" vertex="1">
          <mxGeometry y="200" width="200" height="8" as="geometry" />
        </mxCell>
        <mxCell id="_smzAnieDaN4sx0Uvykq-14" value="&lt;div&gt;+ __construct(...)&lt;/div&gt;&lt;div&gt;+ getArtWorkID(): int&lt;/div&gt;&lt;div&gt;&lt;span style=&quot;background-color: transparent; color: light-dark(rgb(0, 0, 0), rgb(255, 255, 255));&quot;&gt;+ getTitle(): string&lt;/span&gt;&lt;/div&gt;&lt;div&gt;&lt;span style=&quot;background-color: transparent; color: light-dark(rgb(0, 0, 0), rgb(255, 255, 255));&quot;&gt;+ getYearOfWork(): int&lt;/span&gt;&lt;/div&gt;&lt;div&gt;&lt;span style=&quot;background-color: transparent; color: light-dark(rgb(0, 0, 0), rgb(255, 255, 255));&quot;&gt;+ getImageFileName(): string&lt;/span&gt;&lt;/div&gt;&lt;div&gt;&lt;span style=&quot;background-color: transparent; color: light-dark(rgb(0, 0, 0), rgb(255, 255, 255));&quot;&gt;+ getArtistID(): int&lt;/span&gt;&lt;/div&gt;&lt;div&gt;&lt;span style=&quot;background-color: transparent; color: light-dark(rgb(0, 0, 0), rgb(255, 255, 255));&quot;&gt;+ getDescription(): string&lt;/span&gt;&lt;/div&gt;&lt;div&gt;&lt;span style=&quot;background-color: transparent; color: light-dark(rgb(0, 0, 0), rgb(255, 255, 255));&quot;&gt;+ getExcerpt(): string&lt;/span&gt;&lt;/div&gt;&lt;div&gt;&lt;span style=&quot;background-color: transparent; color: light-dark(rgb(0, 0, 0), rgb(255, 255, 255));&quot;&gt;+ getMedium(): string&lt;/span&gt;&lt;/div&gt;&lt;div&gt;&lt;span style=&quot;background-color: transparent; color: light-dark(rgb(0, 0, 0), rgb(255, 255, 255));&quot;&gt;+ getOriginalHome(): string&lt;/span&gt;&lt;/div&gt;&lt;div&gt;&lt;span style=&quot;background-color: transparent; color: light-dark(rgb(0, 0, 0), rgb(255, 255, 255));&quot;&gt;+ getArtWorkLink(): string&lt;/span&gt;&lt;/div&gt;&lt;div&gt;&lt;span style=&quot;background-color: transparent; color: light-dark(rgb(0, 0, 0), rgb(255, 255, 255));&quot;&gt;+ getGoogleLink(): string&lt;/span&gt;&lt;/div&gt;&lt;div&gt;&lt;br&gt;&lt;/div&gt;" style="text;strokeColor=none;fillColor=none;align=left;verticalAlign=top;spacingLeft=4;spacingRight=4;overflow=hidden;rotatable=0;points=[[0,0.5],[1,0.5]];portConstraint=eastwest;whiteSpace=wrap;html=1;" parent="_smzAnieDaN4sx0Uvykq-11" vertex="1">
          <mxGeometry y="208" width="200" height="182" as="geometry" />
        </mxCell>
        <mxCell id="_smzAnieDaN4sx0Uvykq-16" value="Review" style="swimlane;fontStyle=1;align=center;verticalAlign=top;childLayout=stackLayout;horizontal=1;startSize=26;horizontalStack=0;resizeParent=1;resizeParentMax=0;resizeLast=0;collapsible=1;marginBottom=0;whiteSpace=wrap;html=1;" parent="1" vertex="1">
          <mxGeometry x="585" y="860" width="200" height="250" as="geometry" />
        </mxCell>
        <mxCell id="_smzAnieDaN4sx0Uvykq-17" value="&lt;div&gt;- ReviewId: int&lt;/div&gt;&lt;div&gt;- ArtWorkId: int&lt;/div&gt;&lt;div&gt;- CustomerId: int&lt;/div&gt;&lt;div&gt;- ReviewDate: string&lt;/div&gt;&lt;div&gt;- Rating: int&lt;/div&gt;&lt;div&gt;- Comment: string&lt;/div&gt;" style="text;strokeColor=none;fillColor=none;align=left;verticalAlign=top;spacingLeft=4;spacingRight=4;overflow=hidden;rotatable=0;points=[[0,0.5],[1,0.5]];portConstraint=eastwest;whiteSpace=wrap;html=1;" parent="_smzAnieDaN4sx0Uvykq-16" vertex="1">
          <mxGeometry y="26" width="200" height="104" as="geometry" />
        </mxCell>
        <mxCell id="_smzAnieDaN4sx0Uvykq-18" value="" style="line;strokeWidth=1;fillColor=none;align=left;verticalAlign=middle;spacingTop=-1;spacingLeft=3;spacingRight=3;rotatable=0;labelPosition=right;points=[];portConstraint=eastwest;strokeColor=inherit;" parent="_smzAnieDaN4sx0Uvykq-16" vertex="1">
          <mxGeometry y="130" width="200" height="8" as="geometry" />
        </mxCell>
        <mxCell id="_smzAnieDaN4sx0Uvykq-19" value="&lt;div&gt;+ construct(..)&lt;/div&gt;&lt;div&gt;+ getReviewId(): int&lt;/div&gt;&lt;div&gt;&lt;span style=&quot;background-color: transparent; color: light-dark(rgb(0, 0, 0), rgb(255, 255, 255));&quot;&gt;+ getArtWorkId(): int&lt;/span&gt;&lt;/div&gt;&lt;div&gt;&lt;span style=&quot;background-color: transparent; color: light-dark(rgb(0, 0, 0), rgb(255, 255, 255));&quot;&gt;+ getCustomerId(): int&lt;/span&gt;&lt;/div&gt;&lt;div&gt;&lt;span style=&quot;background-color: transparent; color: light-dark(rgb(0, 0, 0), rgb(255, 255, 255));&quot;&gt;+ getReviewDate(): string&lt;/span&gt;&lt;/div&gt;&lt;div&gt;&lt;span style=&quot;background-color: transparent; color: light-dark(rgb(0, 0, 0), rgb(255, 255, 255));&quot;&gt;+ getRating(): int&lt;/span&gt;&lt;/div&gt;&lt;div&gt;&lt;span style=&quot;background-color: transparent; color: light-dark(rgb(0, 0, 0), rgb(255, 255, 255));&quot;&gt;+ getComment(): string&lt;/span&gt;&lt;/div&gt;&lt;div&gt;&lt;br&gt;&lt;/div&gt;" style="text;strokeColor=none;fillColor=none;align=left;verticalAlign=top;spacingLeft=4;spacingRight=4;overflow=hidden;rotatable=0;points=[[0,0.5],[1,0.5]];portConstraint=eastwest;whiteSpace=wrap;html=1;" parent="_smzAnieDaN4sx0Uvykq-16" vertex="1">
          <mxGeometry y="138" width="200" height="112" as="geometry" />
        </mxCell>
        <mxCell id="_smzAnieDaN4sx0Uvykq-20" value="Customer" style="swimlane;fontStyle=1;align=center;verticalAlign=top;childLayout=stackLayout;horizontal=1;startSize=26;horizontalStack=0;resizeParent=1;resizeParentMax=0;resizeLast=0;collapsible=1;marginBottom=0;whiteSpace=wrap;html=1;" parent="1" vertex="1">
          <mxGeometry x="1020" y="940" width="190" height="340" as="geometry" />
        </mxCell>
        <mxCell id="_smzAnieDaN4sx0Uvykq-21" value="&lt;div&gt;- CustomerID: int&lt;/div&gt;&lt;div&gt;- FirstName: string&lt;/div&gt;&lt;div&gt;- LastName: string&lt;/div&gt;&lt;div&gt;- Address: string&lt;/div&gt;&lt;div&gt;- City: string&lt;/div&gt;&lt;div&gt;- Country: string&lt;/div&gt;&lt;div&gt;- Postal: string&lt;/div&gt;&lt;div&gt;- Phone: string&lt;/div&gt;&lt;div&gt;- Email: string&lt;/div&gt;" style="text;strokeColor=none;fillColor=none;align=left;verticalAlign=top;spacingLeft=4;spacingRight=4;overflow=hidden;rotatable=0;points=[[0,0.5],[1,0.5]];portConstraint=eastwest;whiteSpace=wrap;html=1;" parent="_smzAnieDaN4sx0Uvykq-20" vertex="1">
          <mxGeometry y="26" width="190" height="144" as="geometry" />
        </mxCell>
        <mxCell id="_smzAnieDaN4sx0Uvykq-22" value="" style="line;strokeWidth=1;fillColor=none;align=left;verticalAlign=middle;spacingTop=-1;spacingLeft=3;spacingRight=3;rotatable=0;labelPosition=right;points=[];portConstraint=eastwest;strokeColor=inherit;" parent="_smzAnieDaN4sx0Uvykq-20" vertex="1">
          <mxGeometry y="170" width="190" height="8" as="geometry" />
        </mxCell>
        <mxCell id="_smzAnieDaN4sx0Uvykq-23" value="&lt;div&gt;+ __construct(...)&lt;/div&gt;&lt;div&gt;+ getCustomerID(): int&lt;/div&gt;&lt;div&gt;&lt;span style=&quot;background-color: transparent; color: light-dark(rgb(0, 0, 0), rgb(255, 255, 255));&quot;&gt;+ getFirstName(): string&lt;/span&gt;&lt;/div&gt;&lt;div&gt;&lt;span style=&quot;background-color: transparent; color: light-dark(rgb(0, 0, 0), rgb(255, 255, 255));&quot;&gt;+ getLastName(): string&lt;/span&gt;&lt;/div&gt;&lt;div&gt;&lt;span style=&quot;background-color: transparent; color: light-dark(rgb(0, 0, 0), rgb(255, 255, 255));&quot;&gt;+ getAddress(): string&lt;/span&gt;&lt;/div&gt;&lt;div&gt;&lt;span style=&quot;background-color: transparent; color: light-dark(rgb(0, 0, 0), rgb(255, 255, 255));&quot;&gt;+ getCity(): string&lt;/span&gt;&lt;/div&gt;&lt;div&gt;&lt;span style=&quot;background-color: transparent; color: light-dark(rgb(0, 0, 0), rgb(255, 255, 255));&quot;&gt;+ getCountry(): string&lt;/span&gt;&lt;/div&gt;&lt;div&gt;&lt;span style=&quot;background-color: transparent; color: light-dark(rgb(0, 0, 0), rgb(255, 255, 255));&quot;&gt;+ getPostal(): string&lt;/span&gt;&lt;/div&gt;&lt;div&gt;&lt;span style=&quot;background-color: transparent; color: light-dark(rgb(0, 0, 0), rgb(255, 255, 255));&quot;&gt;+ getPhone(): string&lt;/span&gt;&lt;/div&gt;&lt;div&gt;&lt;span style=&quot;background-color: transparent; color: light-dark(rgb(0, 0, 0), rgb(255, 255, 255));&quot;&gt;+ getEmail(): string&lt;/span&gt;&lt;/div&gt;&lt;div&gt;&lt;br&gt;&lt;/div&gt;" style="text;strokeColor=none;fillColor=none;align=left;verticalAlign=top;spacingLeft=4;spacingRight=4;overflow=hidden;rotatable=0;points=[[0,0.5],[1,0.5]];portConstraint=eastwest;whiteSpace=wrap;html=1;" parent="_smzAnieDaN4sx0Uvykq-20" vertex="1">
          <mxGeometry y="178" width="190" height="162" as="geometry" />
        </mxCell>
        <mxCell id="_smzAnieDaN4sx0Uvykq-24" value="CustomerLogon" style="swimlane;fontStyle=1;align=center;verticalAlign=top;childLayout=stackLayout;horizontal=1;startSize=26;horizontalStack=0;resizeParent=1;resizeParentMax=0;resizeLast=0;collapsible=1;marginBottom=0;whiteSpace=wrap;html=1;" parent="1" vertex="1">
          <mxGeometry x="1400" y="980" width="180" height="220" as="geometry" />
        </mxCell>
        <mxCell id="_smzAnieDaN4sx0Uvykq-25" value="&lt;div&gt;- LogonID: int&lt;/div&gt;&lt;div&gt;- CustomerID: int&lt;/div&gt;&lt;div&gt;- UserName: string&lt;/div&gt;&lt;div&gt;- Password: string&lt;/div&gt;&lt;div&gt;- Type: string&lt;/div&gt;" style="text;strokeColor=none;fillColor=none;align=left;verticalAlign=top;spacingLeft=4;spacingRight=4;overflow=hidden;rotatable=0;points=[[0,0.5],[1,0.5]];portConstraint=eastwest;whiteSpace=wrap;html=1;" parent="_smzAnieDaN4sx0Uvykq-24" vertex="1">
          <mxGeometry y="26" width="180" height="84" as="geometry" />
        </mxCell>
        <mxCell id="_smzAnieDaN4sx0Uvykq-26" value="" style="line;strokeWidth=1;fillColor=none;align=left;verticalAlign=middle;spacingTop=-1;spacingLeft=3;spacingRight=3;rotatable=0;labelPosition=right;points=[];portConstraint=eastwest;strokeColor=inherit;" parent="_smzAnieDaN4sx0Uvykq-24" vertex="1">
          <mxGeometry y="110" width="180" height="8" as="geometry" />
        </mxCell>
        <mxCell id="_smzAnieDaN4sx0Uvykq-27" value="&lt;div&gt;+ __construct(...)&lt;/div&gt;&lt;div&gt;+ getLogonID(): int&lt;/div&gt;&lt;div&gt;&lt;span style=&quot;background-color: transparent; color: light-dark(rgb(0, 0, 0), rgb(255, 255, 255));&quot;&gt;+ getCustomerID(): int&lt;/span&gt;&lt;/div&gt;&lt;div&gt;&lt;span style=&quot;background-color: transparent; color: light-dark(rgb(0, 0, 0), rgb(255, 255, 255));&quot;&gt;+ getUserName(): string&lt;/span&gt;&lt;/div&gt;&lt;div&gt;&lt;span style=&quot;background-color: transparent; color: light-dark(rgb(0, 0, 0), rgb(255, 255, 255));&quot;&gt;+ getPassword(): string&lt;/span&gt;&lt;/div&gt;&lt;div&gt;&lt;span style=&quot;background-color: transparent; color: light-dark(rgb(0, 0, 0), rgb(255, 255, 255));&quot;&gt;+ getType(): string&lt;/span&gt;&lt;/div&gt;&lt;div&gt;&lt;br&gt;&lt;/div&gt;" style="text;strokeColor=none;fillColor=none;align=left;verticalAlign=top;spacingLeft=4;spacingRight=4;overflow=hidden;rotatable=0;points=[[0,0.5],[1,0.5]];portConstraint=eastwest;whiteSpace=wrap;html=1;" parent="_smzAnieDaN4sx0Uvykq-24" vertex="1">
          <mxGeometry y="118" width="180" height="102" as="geometry" />
        </mxCell>
        <mxCell id="_smzAnieDaN4sx0Uvykq-28" value="Genre" style="swimlane;fontStyle=1;align=center;verticalAlign=top;childLayout=stackLayout;horizontal=1;startSize=26;horizontalStack=0;resizeParent=1;resizeParentMax=0;resizeLast=0;collapsible=1;marginBottom=0;whiteSpace=wrap;html=1;" parent="1" vertex="1">
          <mxGeometry x="1700" y="680" width="200" height="220" as="geometry" />
        </mxCell>
        <mxCell id="_smzAnieDaN4sx0Uvykq-29" value="&lt;div&gt;- GenreID: int&lt;/div&gt;&lt;div&gt;- GenreName: string&lt;/div&gt;&lt;div&gt;- Era: string&lt;/div&gt;&lt;div&gt;- Description: string&lt;/div&gt;&lt;div&gt;- Link: string&lt;/div&gt;" style="text;strokeColor=none;fillColor=none;align=left;verticalAlign=top;spacingLeft=4;spacingRight=4;overflow=hidden;rotatable=0;points=[[0,0.5],[1,0.5]];portConstraint=eastwest;whiteSpace=wrap;html=1;" parent="_smzAnieDaN4sx0Uvykq-28" vertex="1">
          <mxGeometry y="26" width="200" height="84" as="geometry" />
        </mxCell>
        <mxCell id="_smzAnieDaN4sx0Uvykq-30" value="" style="line;strokeWidth=1;fillColor=none;align=left;verticalAlign=middle;spacingTop=-1;spacingLeft=3;spacingRight=3;rotatable=0;labelPosition=right;points=[];portConstraint=eastwest;strokeColor=inherit;" parent="_smzAnieDaN4sx0Uvykq-28" vertex="1">
          <mxGeometry y="110" width="200" height="8" as="geometry" />
        </mxCell>
        <mxCell id="_smzAnieDaN4sx0Uvykq-31" value="&lt;div&gt;+ __construct(...)&lt;/div&gt;&lt;div&gt;+ getGenreID(): int&lt;/div&gt;&lt;div&gt;&lt;span style=&quot;background-color: transparent; color: light-dark(rgb(0, 0, 0), rgb(255, 255, 255));&quot;&gt;+ getGenreName(): string&lt;/span&gt;&lt;/div&gt;&lt;div&gt;&lt;span style=&quot;background-color: transparent; color: light-dark(rgb(0, 0, 0), rgb(255, 255, 255));&quot;&gt;+ getEra(): string&lt;/span&gt;&lt;/div&gt;&lt;div&gt;&lt;span style=&quot;background-color: transparent; color: light-dark(rgb(0, 0, 0), rgb(255, 255, 255));&quot;&gt;+ getDescription(): string&lt;/span&gt;&lt;/div&gt;&lt;div&gt;&lt;span style=&quot;background-color: transparent; color: light-dark(rgb(0, 0, 0), rgb(255, 255, 255));&quot;&gt;+ getLink(): string&lt;/span&gt;&lt;/div&gt;&lt;div&gt;&lt;br&gt;&lt;/div&gt;" style="text;strokeColor=none;fillColor=none;align=left;verticalAlign=top;spacingLeft=4;spacingRight=4;overflow=hidden;rotatable=0;points=[[0,0.5],[1,0.5]];portConstraint=eastwest;whiteSpace=wrap;html=1;" parent="_smzAnieDaN4sx0Uvykq-28" vertex="1">
          <mxGeometry y="118" width="200" height="102" as="geometry" />
        </mxCell>
        <mxCell id="Tqil696aAraFWEGqHsqj-1" style="edgeStyle=orthogonalEdgeStyle;rounded=0;orthogonalLoop=1;jettySize=auto;html=1;exitX=0.5;exitY=0;exitDx=0;exitDy=0;endArrow=none;startFill=0;entryX=0.315;entryY=0.996;entryDx=0;entryDy=0;entryPerimeter=0;" parent="1" source="_smzAnieDaN4sx0Uvykq-32" edge="1" target="_smzAnieDaN4sx0Uvykq-63">
          <mxGeometry relative="1" as="geometry">
            <mxPoint x="1850" y="380.0000000000002" as="targetPoint" />
          </mxGeometry>
        </mxCell>
        <mxCell id="_smzAnieDaN4sx0Uvykq-32" value="Subject" style="swimlane;fontStyle=1;align=center;verticalAlign=top;childLayout=stackLayout;horizontal=1;startSize=26;horizontalStack=0;resizeParent=1;resizeParentMax=0;resizeLast=0;collapsible=1;marginBottom=0;whiteSpace=wrap;html=1;" parent="1" vertex="1">
          <mxGeometry x="1880" y="510" width="180" height="130" as="geometry" />
        </mxCell>
        <mxCell id="_smzAnieDaN4sx0Uvykq-33" value="&lt;div&gt;- SubjectID: int&lt;/div&gt;&lt;div&gt;- SubjectName: string&lt;/div&gt;" style="text;strokeColor=none;fillColor=none;align=left;verticalAlign=top;spacingLeft=4;spacingRight=4;overflow=hidden;rotatable=0;points=[[0,0.5],[1,0.5]];portConstraint=eastwest;whiteSpace=wrap;html=1;" parent="_smzAnieDaN4sx0Uvykq-32" vertex="1">
          <mxGeometry y="26" width="180" height="44" as="geometry" />
        </mxCell>
        <mxCell id="_smzAnieDaN4sx0Uvykq-34" value="" style="line;strokeWidth=1;fillColor=none;align=left;verticalAlign=middle;spacingTop=-1;spacingLeft=3;spacingRight=3;rotatable=0;labelPosition=right;points=[];portConstraint=eastwest;strokeColor=inherit;" parent="_smzAnieDaN4sx0Uvykq-32" vertex="1">
          <mxGeometry y="70" width="180" height="8" as="geometry" />
        </mxCell>
        <mxCell id="_smzAnieDaN4sx0Uvykq-35" value="&lt;div&gt;+ __construct(...)&lt;/div&gt;&lt;div&gt;+ getSubjectID(): int&lt;/div&gt;&lt;div&gt;&lt;span style=&quot;background-color: transparent; color: light-dark(rgb(0, 0, 0), rgb(255, 255, 255));&quot;&gt;+ getSubjectName(): string&lt;/span&gt;&lt;/div&gt;&lt;div&gt;&lt;br&gt;&lt;/div&gt;" style="text;strokeColor=none;fillColor=none;align=left;verticalAlign=top;spacingLeft=4;spacingRight=4;overflow=hidden;rotatable=0;points=[[0,0.5],[1,0.5]];portConstraint=eastwest;whiteSpace=wrap;html=1;" parent="_smzAnieDaN4sx0Uvykq-32" vertex="1">
          <mxGeometry y="78" width="180" height="52" as="geometry" />
        </mxCell>
        <mxCell id="_smzAnieDaN4sx0Uvykq-36" value="ArtistRepository" style="swimlane;fontStyle=1;align=center;verticalAlign=top;childLayout=stackLayout;horizontal=1;startSize=26;horizontalStack=0;resizeParent=1;resizeParentMax=0;resizeLast=0;collapsible=1;marginBottom=0;whiteSpace=wrap;html=1;" parent="1" vertex="1">
          <mxGeometry x="310" y="380" width="350" height="150" as="geometry" />
        </mxCell>
        <mxCell id="_smzAnieDaN4sx0Uvykq-37" value="- db: Database" style="text;strokeColor=none;fillColor=none;align=left;verticalAlign=top;spacingLeft=4;spacingRight=4;overflow=hidden;rotatable=0;points=[[0,0.5],[1,0.5]];portConstraint=eastwest;whiteSpace=wrap;html=1;" parent="_smzAnieDaN4sx0Uvykq-36" vertex="1">
          <mxGeometry y="26" width="350" height="26" as="geometry" />
        </mxCell>
        <mxCell id="_smzAnieDaN4sx0Uvykq-38" value="" style="line;strokeWidth=1;fillColor=none;align=left;verticalAlign=middle;spacingTop=-1;spacingLeft=3;spacingRight=3;rotatable=0;labelPosition=right;points=[];portConstraint=eastwest;strokeColor=inherit;" parent="_smzAnieDaN4sx0Uvykq-36" vertex="1">
          <mxGeometry y="52" width="350" height="8" as="geometry" />
        </mxCell>
        <mxCell id="_smzAnieDaN4sx0Uvykq-39" value="&lt;div&gt;+ __construct(db: Database)&lt;/div&gt;&lt;div&gt;+ getAllArtists(order: string = &#39;ASC&#39;):&amp;nbsp;&lt;span style=&quot;background-color: transparent; color: light-dark(rgb(0, 0, 0), rgb(255, 255, 255));&quot;&gt;Artist[]&lt;/span&gt;&lt;/div&gt;&lt;div&gt;+ getArtistById(id: int): Artist&lt;/div&gt;&lt;div&gt;+ searchArtists(query: string, order: string = &#39;ASC&#39;):&amp;nbsp;&lt;span style=&quot;background-color: transparent; color: light-dark(rgb(0, 0, 0), rgb(255, 255, 255));&quot;&gt;Artist[]&lt;/span&gt;&lt;/div&gt;&lt;div&gt;+ getTop3Artists(limit: int = 3): array&lt;/div&gt;" style="text;strokeColor=none;fillColor=none;align=left;verticalAlign=top;spacingLeft=4;spacingRight=4;overflow=hidden;rotatable=0;points=[[0,0.5],[1,0.5]];portConstraint=eastwest;whiteSpace=wrap;html=1;" parent="_smzAnieDaN4sx0Uvykq-36" vertex="1">
          <mxGeometry y="60" width="350" height="90" as="geometry" />
        </mxCell>
        <mxCell id="_smzAnieDaN4sx0Uvykq-40" value="ArtworkRepository" style="swimlane;fontStyle=1;align=center;verticalAlign=top;childLayout=stackLayout;horizontal=1;startSize=26;horizontalStack=0;resizeParent=1;resizeParentMax=0;resizeLast=0;collapsible=1;marginBottom=0;whiteSpace=wrap;html=1;" parent="1" vertex="1">
          <mxGeometry y="40" width="470" height="250" as="geometry" />
        </mxCell>
        <mxCell id="_smzAnieDaN4sx0Uvykq-41" value="- db: Database" style="text;strokeColor=none;fillColor=none;align=left;verticalAlign=top;spacingLeft=4;spacingRight=4;overflow=hidden;rotatable=0;points=[[0,0.5],[1,0.5]];portConstraint=eastwest;whiteSpace=wrap;html=1;" parent="_smzAnieDaN4sx0Uvykq-40" vertex="1">
          <mxGeometry y="26" width="470" height="26" as="geometry" />
        </mxCell>
        <mxCell id="_smzAnieDaN4sx0Uvykq-42" value="" style="line;strokeWidth=1;fillColor=none;align=left;verticalAlign=middle;spacingTop=-1;spacingLeft=3;spacingRight=3;rotatable=0;labelPosition=right;points=[];portConstraint=eastwest;strokeColor=inherit;" parent="_smzAnieDaN4sx0Uvykq-40" vertex="1">
          <mxGeometry y="52" width="470" height="8" as="geometry" />
        </mxCell>
        <mxCell id="_smzAnieDaN4sx0Uvykq-43" value="&lt;div&gt;+ __construct(db: Database)&lt;/div&gt;&lt;div&gt;+ getAllArtworks(orderBy: string = &#39;Title&#39;, order: string = &#39;ASC&#39;): Artwork[]&lt;/div&gt;&lt;div&gt;+ getArtworkById(id: int): Artwork&lt;/div&gt;&lt;div&gt;+ getAllArtworksForOneArtistByArtistId(id: int): Artwork[]&lt;/div&gt;&lt;div&gt;+ getAllArtworksForOneGenreByGenreId(genreId: int): Artwork[]&lt;/div&gt;&lt;div&gt;+ getGenreForOneArtworkByArtworkId(id: int): Genre[]&lt;/div&gt;&lt;div&gt;+ getAllArtworksForOneSubjectBySubjectId(id: int): Artwork[]&lt;/div&gt;&lt;div&gt;+ getSubjectForOneArtworkByArtworkId(id: int): Subject[]&lt;/div&gt;&lt;div&gt;+ searchArtworks(query: string, orderBy: string = &#39;Title&#39;, order: string = &#39;ASC&#39;): Artwork[]&lt;/div&gt;&lt;div&gt;+ get3RandomArtworks(limit: int = 3): Artwork[]&lt;/div&gt;&lt;div&gt;+ get3TopArtworks(limit: int = 3): array&lt;/div&gt;&lt;div&gt;+ getAverageRatingForArtwork(artworkId: int): float&lt;/div&gt;" style="text;strokeColor=none;fillColor=none;align=left;verticalAlign=top;spacingLeft=4;spacingRight=4;overflow=hidden;rotatable=0;points=[[0,0.5],[1,0.5]];portConstraint=eastwest;whiteSpace=wrap;html=1;" parent="_smzAnieDaN4sx0Uvykq-40" vertex="1">
          <mxGeometry y="60" width="470" height="190" as="geometry" />
        </mxCell>
        <mxCell id="_smzAnieDaN4sx0Uvykq-44" value="ReviewRepository" style="swimlane;fontStyle=1;align=center;verticalAlign=top;childLayout=stackLayout;horizontal=1;startSize=26;horizontalStack=0;resizeParent=1;resizeParentMax=0;resizeLast=0;collapsible=1;marginBottom=0;whiteSpace=wrap;html=1;" parent="1" vertex="1">
          <mxGeometry x="530" y="594" width="420" height="150" as="geometry" />
        </mxCell>
        <mxCell id="_smzAnieDaN4sx0Uvykq-45" value="- db: Database" style="text;strokeColor=none;fillColor=none;align=left;verticalAlign=top;spacingLeft=4;spacingRight=4;overflow=hidden;rotatable=0;points=[[0,0.5],[1,0.5]];portConstraint=eastwest;whiteSpace=wrap;html=1;" parent="_smzAnieDaN4sx0Uvykq-44" vertex="1">
          <mxGeometry y="26" width="420" height="24" as="geometry" />
        </mxCell>
        <mxCell id="_smzAnieDaN4sx0Uvykq-46" value="" style="line;strokeWidth=1;fillColor=none;align=left;verticalAlign=middle;spacingTop=-1;spacingLeft=3;spacingRight=3;rotatable=0;labelPosition=right;points=[];portConstraint=eastwest;strokeColor=inherit;" parent="_smzAnieDaN4sx0Uvykq-44" vertex="1">
          <mxGeometry y="50" width="420" height="8" as="geometry" />
        </mxCell>
        <mxCell id="_smzAnieDaN4sx0Uvykq-47" value="&lt;div&gt;+ __construct(db: Database)&lt;/div&gt;&lt;div&gt;+ get3RecentReviews(limit: int = 3): Review[]&lt;/div&gt;&lt;div&gt;+ getReviewCountForArtist(artistId: int): int&lt;/div&gt;&lt;div&gt;+ getAllReviewsForOneArtworkByArtworkId(artworkId: int): Review[]&lt;/div&gt;&lt;div&gt;+ addReview(artworkId: int, customerId: int, rating: int, comment: string): void&lt;/div&gt;&lt;div&gt;+ deleteReview(reviewId: int): PDOStatement&lt;/div&gt;&lt;div&gt;+ hasUserReviewedArtwork(artworkId: int, customerId: int): bool&lt;/div&gt;" style="text;strokeColor=none;fillColor=none;align=left;verticalAlign=top;spacingLeft=4;spacingRight=4;overflow=hidden;rotatable=0;points=[[0,0.5],[1,0.5]];portConstraint=eastwest;whiteSpace=wrap;html=1;" parent="_smzAnieDaN4sx0Uvykq-44" vertex="1">
          <mxGeometry y="58" width="420" height="92" as="geometry" />
        </mxCell>
        <mxCell id="-QTzS8KxPPInOXY2uju4-1" style="edgeStyle=orthogonalEdgeStyle;rounded=0;orthogonalLoop=1;jettySize=auto;html=1;exitX=0.75;exitY=0;exitDx=0;exitDy=0;entryX=0;entryY=0.5;entryDx=0;entryDy=0;endArrow=none;endFill=0;" parent="1" source="_smzAnieDaN4sx0Uvykq-48" target="Tqil696aAraFWEGqHsqj-3" edge="1">
          <mxGeometry relative="1" as="geometry" />
        </mxCell>
        <mxCell id="_smzAnieDaN4sx0Uvykq-48" value="Database" style="swimlane;fontStyle=1;align=center;verticalAlign=top;childLayout=stackLayout;horizontal=1;startSize=26;horizontalStack=0;resizeParent=1;resizeParentMax=0;resizeLast=0;collapsible=1;marginBottom=0;whiteSpace=wrap;html=1;" parent="1" vertex="1">
          <mxGeometry x="1050" y="120" width="250" height="250" as="geometry" />
        </mxCell>
        <mxCell id="_smzAnieDaN4sx0Uvykq-49" value="&lt;div&gt;- dsn: string&lt;/div&gt;&lt;div&gt;- username: string&lt;/div&gt;&lt;div&gt;- password: string&lt;/div&gt;&lt;div&gt;- pdo: PDO&lt;/div&gt;" style="text;strokeColor=none;fillColor=none;align=left;verticalAlign=top;spacingLeft=4;spacingRight=4;overflow=hidden;rotatable=0;points=[[0,0.5],[1,0.5]];portConstraint=eastwest;whiteSpace=wrap;html=1;" parent="_smzAnieDaN4sx0Uvykq-48" vertex="1">
          <mxGeometry y="26" width="250" height="74" as="geometry" />
        </mxCell>
        <mxCell id="_smzAnieDaN4sx0Uvykq-50" value="" style="line;strokeWidth=1;fillColor=none;align=left;verticalAlign=middle;spacingTop=-1;spacingLeft=3;spacingRight=3;rotatable=0;labelPosition=right;points=[];portConstraint=eastwest;strokeColor=inherit;" parent="_smzAnieDaN4sx0Uvykq-48" vertex="1">
          <mxGeometry y="100" width="250" height="8" as="geometry" />
        </mxCell>
        <mxCell id="_smzAnieDaN4sx0Uvykq-51" value="&lt;div&gt;+ connect(): void&lt;/div&gt;&lt;div&gt;+ close(): void&lt;/div&gt;&lt;div&gt;+ prepareStatement(string): PDOStatement&lt;/div&gt;&lt;div&gt;+ isConnected(): bool&lt;/div&gt;&lt;div&gt;+ beginTransaction(): void&lt;/div&gt;&lt;div&gt;+ commit(): void&lt;/div&gt;&lt;div&gt;+ rollBack(): void&lt;/div&gt;&lt;div&gt;+ lastInsertId(): int&lt;/div&gt;" style="text;strokeColor=none;fillColor=none;align=left;verticalAlign=top;spacingLeft=4;spacingRight=4;overflow=hidden;rotatable=0;points=[[0,0.5],[1,0.5]];portConstraint=eastwest;whiteSpace=wrap;html=1;" parent="_smzAnieDaN4sx0Uvykq-48" vertex="1">
          <mxGeometry y="108" width="250" height="142" as="geometry" />
        </mxCell>
        <mxCell id="_smzAnieDaN4sx0Uvykq-52" value="CustomerRepository" style="swimlane;fontStyle=1;align=center;verticalAlign=top;childLayout=stackLayout;horizontal=1;startSize=26;horizontalStack=0;resizeParent=1;resizeParentMax=0;resizeLast=0;collapsible=1;marginBottom=0;whiteSpace=wrap;html=1;" parent="1" vertex="1">
          <mxGeometry x="1020" y="560" width="600" height="300" as="geometry" />
        </mxCell>
        <mxCell id="_smzAnieDaN4sx0Uvykq-53" value="- db: Database" style="text;strokeColor=none;fillColor=none;align=left;verticalAlign=top;spacingLeft=4;spacingRight=4;overflow=hidden;rotatable=0;points=[[0,0.5],[1,0.5]];portConstraint=eastwest;whiteSpace=wrap;html=1;" parent="_smzAnieDaN4sx0Uvykq-52" vertex="1">
          <mxGeometry y="26" width="600" height="26" as="geometry" />
        </mxCell>
        <mxCell id="_smzAnieDaN4sx0Uvykq-54" value="" style="line;strokeWidth=1;fillColor=none;align=left;verticalAlign=middle;spacingTop=-1;spacingLeft=3;spacingRight=3;rotatable=0;labelPosition=right;points=[];portConstraint=eastwest;strokeColor=inherit;" parent="_smzAnieDaN4sx0Uvykq-52" vertex="1">
          <mxGeometry y="52" width="600" height="8" as="geometry" />
        </mxCell>
        <mxCell id="_smzAnieDaN4sx0Uvykq-55" value="&lt;div&gt;+ __construct(db: Database)&lt;/div&gt;&lt;div&gt;&amp;nbsp; + getAllCustomers(): array&lt;/div&gt;&lt;div&gt;&amp;nbsp; + getCustomerByID(customerID: int): Customer|null&lt;/div&gt;&lt;div&gt;&amp;nbsp; + getCustomerNameById(customerId: int): string&lt;/div&gt;&lt;div&gt;&amp;nbsp; + getCustomerByEmail(db: Database, email: string): array|null&lt;/div&gt;&lt;div&gt;&amp;nbsp; + addCustomer(customer: Customer, password: string): int&lt;/div&gt;&lt;div&gt;&amp;nbsp; + updateCustomer(customerID: int, firstName: string, lastName: string, email: string, password: ?string): void&lt;/div&gt;&lt;div&gt;&amp;nbsp; + updateUserProfile(customerID: int, data: array, password: ?string): bool&lt;/div&gt;&lt;div&gt;&amp;nbsp; + emailExists(email: string): bool&lt;/div&gt;&lt;div&gt;&amp;nbsp; + resetPassword(customerID: int, newPassword: string): void&lt;/div&gt;&lt;div&gt;&amp;nbsp; + setUserRole(customerID: int, type: int): bool&lt;/div&gt;&lt;div&gt;&amp;nbsp; + countAdministrators(): int&lt;/div&gt;&lt;div&gt;&amp;nbsp; + deactivateUser(customerID: int): bool&lt;/div&gt;&lt;div&gt;&amp;nbsp; + reactivateUser(customerID: int): bool&lt;/div&gt;&lt;div&gt;&amp;nbsp; + getUserRole(customerID: int): int&lt;/div&gt;&lt;div&gt;&amp;nbsp; + emailExistsForOtherUser(email: string, customerID: int): bool&lt;/div&gt;" style="text;strokeColor=none;fillColor=none;align=left;verticalAlign=top;spacingLeft=4;spacingRight=4;overflow=hidden;rotatable=0;points=[[0,0.5],[1,0.5]];portConstraint=eastwest;whiteSpace=wrap;html=1;" parent="_smzAnieDaN4sx0Uvykq-52" vertex="1">
          <mxGeometry y="60" width="600" height="240" as="geometry" />
        </mxCell>
        <mxCell id="_smzAnieDaN4sx0Uvykq-56" value="GenreRepository" style="swimlane;fontStyle=1;align=center;verticalAlign=top;childLayout=stackLayout;horizontal=1;startSize=26;horizontalStack=0;resizeParent=1;resizeParentMax=0;resizeLast=0;collapsible=1;marginBottom=0;whiteSpace=wrap;html=1;" parent="1" vertex="1">
          <mxGeometry x="1510" y="354" width="180" height="120" as="geometry" />
        </mxCell>
        <mxCell id="_smzAnieDaN4sx0Uvykq-57" value="- db: Database" style="text;strokeColor=none;fillColor=none;align=left;verticalAlign=top;spacingLeft=4;spacingRight=4;overflow=hidden;rotatable=0;points=[[0,0.5],[1,0.5]];portConstraint=eastwest;whiteSpace=wrap;html=1;" parent="_smzAnieDaN4sx0Uvykq-56" vertex="1">
          <mxGeometry y="26" width="180" height="26" as="geometry" />
        </mxCell>
        <mxCell id="_smzAnieDaN4sx0Uvykq-58" value="" style="line;strokeWidth=1;fillColor=none;align=left;verticalAlign=middle;spacingTop=-1;spacingLeft=3;spacingRight=3;rotatable=0;labelPosition=right;points=[];portConstraint=eastwest;strokeColor=inherit;" parent="_smzAnieDaN4sx0Uvykq-56" vertex="1">
          <mxGeometry y="52" width="180" height="8" as="geometry" />
        </mxCell>
        <mxCell id="_smzAnieDaN4sx0Uvykq-59" value="&lt;div&gt;+ __construct(db: Database)&lt;/div&gt;&lt;div&gt;+ getAllGenres(): Genre[]&lt;/div&gt;&lt;div&gt;+ getGenreById(id: int): Genre&lt;/div&gt;" style="text;strokeColor=none;fillColor=none;align=left;verticalAlign=top;spacingLeft=4;spacingRight=4;overflow=hidden;rotatable=0;points=[[0,0.5],[1,0.5]];portConstraint=eastwest;whiteSpace=wrap;html=1;" parent="_smzAnieDaN4sx0Uvykq-56" vertex="1">
          <mxGeometry y="60" width="180" height="60" as="geometry" />
        </mxCell>
        <mxCell id="_smzAnieDaN4sx0Uvykq-60" value="SubjectRepository" style="swimlane;fontStyle=1;align=center;verticalAlign=top;childLayout=stackLayout;horizontal=1;startSize=26;horizontalStack=0;resizeParent=1;resizeParentMax=0;resizeLast=0;collapsible=1;marginBottom=0;whiteSpace=wrap;html=1;" parent="1" vertex="1">
          <mxGeometry x="1790" y="250" width="200" height="120" as="geometry" />
        </mxCell>
        <mxCell id="_smzAnieDaN4sx0Uvykq-61" value="- db: Database" style="text;strokeColor=none;fillColor=none;align=left;verticalAlign=top;spacingLeft=4;spacingRight=4;overflow=hidden;rotatable=0;points=[[0,0.5],[1,0.5]];portConstraint=eastwest;whiteSpace=wrap;html=1;" parent="_smzAnieDaN4sx0Uvykq-60" vertex="1">
          <mxGeometry y="26" width="200" height="24" as="geometry" />
        </mxCell>
        <mxCell id="_smzAnieDaN4sx0Uvykq-62" value="" style="line;strokeWidth=1;fillColor=none;align=left;verticalAlign=middle;spacingTop=-1;spacingLeft=3;spacingRight=3;rotatable=0;labelPosition=right;points=[];portConstraint=eastwest;strokeColor=inherit;" parent="_smzAnieDaN4sx0Uvykq-60" vertex="1">
          <mxGeometry y="50" width="200" height="8" as="geometry" />
        </mxCell>
        <mxCell id="_smzAnieDaN4sx0Uvykq-63" value="&lt;div&gt;+ __construct(db: Database)&lt;/div&gt;&lt;div&gt;+ getAllSubjects(): Subject[]&lt;/div&gt;&lt;div&gt;+ getSubjectById(id: int): Subject&lt;/div&gt;" style="text;strokeColor=none;fillColor=none;align=left;verticalAlign=top;spacingLeft=4;spacingRight=4;overflow=hidden;rotatable=0;points=[[0,0.5],[1,0.5]];portConstraint=eastwest;whiteSpace=wrap;html=1;" parent="_smzAnieDaN4sx0Uvykq-60" vertex="1">
          <mxGeometry y="58" width="200" height="62" as="geometry" />
        </mxCell>
        <mxCell id="_smzAnieDaN4sx0Uvykq-68" style="rounded=0;orthogonalLoop=1;jettySize=auto;html=1;exitX=0;exitY=0.5;exitDx=0;exitDy=0;strokeColor=default;edgeStyle=orthogonalEdgeStyle;endArrow=none;startFill=0;" parent="1" source="_smzAnieDaN4sx0Uvykq-49" target="_smzAnieDaN4sx0Uvykq-43" edge="1">
          <mxGeometry relative="1" as="geometry" />
        </mxCell>
        <mxCell id="_smzAnieDaN4sx0Uvykq-70" style="edgeStyle=orthogonalEdgeStyle;rounded=0;orthogonalLoop=1;jettySize=auto;html=1;exitX=0;exitY=0.5;exitDx=0;exitDy=0;entryX=1.001;entryY=0.329;entryDx=0;entryDy=0;entryPerimeter=0;endArrow=none;startFill=0;" parent="1" source="_smzAnieDaN4sx0Uvykq-51" target="_smzAnieDaN4sx0Uvykq-39" edge="1">
          <mxGeometry relative="1" as="geometry" />
        </mxCell>
        <mxCell id="_smzAnieDaN4sx0Uvykq-71" style="edgeStyle=orthogonalEdgeStyle;rounded=0;orthogonalLoop=1;jettySize=auto;html=1;exitX=1;exitY=0.5;exitDx=0;exitDy=0;entryX=0.001;entryY=0.046;entryDx=0;entryDy=0;entryPerimeter=0;endArrow=none;startFill=0;" parent="1" source="_smzAnieDaN4sx0Uvykq-51" target="_smzAnieDaN4sx0Uvykq-59" edge="1">
          <mxGeometry relative="1" as="geometry" />
        </mxCell>
        <mxCell id="_smzAnieDaN4sx0Uvykq-72" style="edgeStyle=orthogonalEdgeStyle;rounded=0;orthogonalLoop=1;jettySize=auto;html=1;entryX=0.711;entryY=0.998;entryDx=0;entryDy=0;entryPerimeter=0;endArrow=none;startFill=0;exitX=0.5;exitY=0;exitDx=0;exitDy=0;" parent="1" source="_smzAnieDaN4sx0Uvykq-52" target="_smzAnieDaN4sx0Uvykq-51" edge="1">
          <mxGeometry relative="1" as="geometry">
            <mxPoint x="1320" y="550" as="sourcePoint" />
          </mxGeometry>
        </mxCell>
        <mxCell id="_smzAnieDaN4sx0Uvykq-73" style="edgeStyle=orthogonalEdgeStyle;rounded=0;orthogonalLoop=1;jettySize=auto;html=1;exitX=0.5;exitY=0;exitDx=0;exitDy=0;entryX=0.398;entryY=0.998;entryDx=0;entryDy=0;entryPerimeter=0;endArrow=none;startFill=0;" parent="1" source="_smzAnieDaN4sx0Uvykq-44" target="_smzAnieDaN4sx0Uvykq-51" edge="1">
          <mxGeometry relative="1" as="geometry">
            <Array as="points">
              <mxPoint x="740" y="510" />
              <mxPoint x="1149" y="510" />
            </Array>
          </mxGeometry>
        </mxCell>
        <mxCell id="_smzAnieDaN4sx0Uvykq-74" style="rounded=0;orthogonalLoop=1;jettySize=auto;html=1;exitX=0.5;exitY=0;exitDx=0;exitDy=0;entryX=0.508;entryY=1;entryDx=0;entryDy=0;entryPerimeter=0;endArrow=none;startFill=0;edgeStyle=orthogonalEdgeStyle;" parent="1" source="_smzAnieDaN4sx0Uvykq-11" target="_smzAnieDaN4sx0Uvykq-43" edge="1">
          <mxGeometry relative="1" as="geometry" />
        </mxCell>
        <mxCell id="_smzAnieDaN4sx0Uvykq-75" style="edgeStyle=orthogonalEdgeStyle;rounded=0;orthogonalLoop=1;jettySize=auto;html=1;exitX=0.5;exitY=0;exitDx=0;exitDy=0;entryX=0.491;entryY=0.996;entryDx=0;entryDy=0;entryPerimeter=0;endArrow=none;startFill=0;" parent="1" source="_smzAnieDaN4sx0Uvykq-7" target="_smzAnieDaN4sx0Uvykq-39" edge="1">
          <mxGeometry relative="1" as="geometry" />
        </mxCell>
        <mxCell id="_smzAnieDaN4sx0Uvykq-76" style="rounded=0;orthogonalLoop=1;jettySize=auto;html=1;exitX=0.5;exitY=0;exitDx=0;exitDy=0;entryX=0.487;entryY=1.006;entryDx=0;entryDy=0;entryPerimeter=0;endArrow=none;startFill=0;edgeStyle=orthogonalEdgeStyle;" parent="1" source="_smzAnieDaN4sx0Uvykq-16" target="_smzAnieDaN4sx0Uvykq-47" edge="1">
          <mxGeometry relative="1" as="geometry" />
        </mxCell>
        <mxCell id="_smzAnieDaN4sx0Uvykq-77" style="edgeStyle=orthogonalEdgeStyle;rounded=0;orthogonalLoop=1;jettySize=auto;html=1;exitX=0.5;exitY=0;exitDx=0;exitDy=0;entryX=0.494;entryY=1.002;entryDx=0;entryDy=0;entryPerimeter=0;endArrow=none;startFill=0;" parent="1" source="_smzAnieDaN4sx0Uvykq-20" target="_smzAnieDaN4sx0Uvykq-55" edge="1">
          <mxGeometry relative="1" as="geometry" />
        </mxCell>
        <mxCell id="_smzAnieDaN4sx0Uvykq-79" style="edgeStyle=orthogonalEdgeStyle;rounded=0;orthogonalLoop=1;jettySize=auto;html=1;exitX=0.5;exitY=0;exitDx=0;exitDy=0;entryX=0.53;entryY=0.995;entryDx=0;entryDy=0;entryPerimeter=0;endArrow=none;startFill=0;" parent="1" source="_smzAnieDaN4sx0Uvykq-28" target="_smzAnieDaN4sx0Uvykq-59" edge="1">
          <mxGeometry relative="1" as="geometry">
            <Array as="points">
              <mxPoint x="1800" y="540" />
              <mxPoint x="1605" y="540" />
            </Array>
          </mxGeometry>
        </mxCell>
        <mxCell id="_smzAnieDaN4sx0Uvykq-82" style="rounded=0;orthogonalLoop=1;jettySize=auto;html=1;exitX=1;exitY=0.5;exitDx=0;exitDy=0;endArrow=none;startFill=0;edgeStyle=orthogonalEdgeStyle;" parent="1" source="_smzAnieDaN4sx0Uvykq-49" edge="1">
          <mxGeometry relative="1" as="geometry">
            <mxPoint x="1790" y="290" as="targetPoint" />
            <Array as="points">
              <mxPoint x="1545" y="183" />
              <mxPoint x="1545" y="290" />
            </Array>
          </mxGeometry>
        </mxCell>
        <mxCell id="Tqil696aAraFWEGqHsqj-2" value="GallerieRepository" style="swimlane;fontStyle=1;align=center;verticalAlign=top;childLayout=stackLayout;horizontal=1;startSize=26;horizontalStack=0;resizeParent=1;resizeParentMax=0;resizeLast=0;collapsible=1;marginBottom=0;whiteSpace=wrap;html=1;" parent="1" vertex="1">
          <mxGeometry x="2020" y="140" width="200" height="120" as="geometry" />
        </mxCell>
        <mxCell id="Tqil696aAraFWEGqHsqj-3" value="- db: Database" style="text;strokeColor=none;fillColor=none;align=left;verticalAlign=top;spacingLeft=4;spacingRight=4;overflow=hidden;rotatable=0;points=[[0,0.5],[1,0.5]];portConstraint=eastwest;whiteSpace=wrap;html=1;" parent="Tqil696aAraFWEGqHsqj-2" vertex="1">
          <mxGeometry y="26" width="200" height="26" as="geometry" />
        </mxCell>
        <mxCell id="Tqil696aAraFWEGqHsqj-4" value="" style="line;strokeWidth=1;fillColor=none;align=left;verticalAlign=middle;spacingTop=-1;spacingLeft=3;spacingRight=3;rotatable=0;labelPosition=right;points=[];portConstraint=eastwest;strokeColor=inherit;" parent="Tqil696aAraFWEGqHsqj-2" vertex="1">
          <mxGeometry y="52" width="200" height="8" as="geometry" />
        </mxCell>
        <mxCell id="Tqil696aAraFWEGqHsqj-5" value="&lt;div&gt;&lt;div&gt;+ __construct(db: Database)&lt;/div&gt;&lt;div&gt;+ getAllGenres(): Genre[]&lt;/div&gt;&lt;div&gt;+ getGenreById(id: int): Genre&lt;/div&gt;&lt;/div&gt;" style="text;strokeColor=none;fillColor=none;align=left;verticalAlign=top;spacingLeft=4;spacingRight=4;overflow=hidden;rotatable=0;points=[[0,0.5],[1,0.5]];portConstraint=eastwest;whiteSpace=wrap;html=1;" parent="Tqil696aAraFWEGqHsqj-2" vertex="1">
          <mxGeometry y="60" width="200" height="60" as="geometry" />
        </mxCell>
        <mxCell id="-QTzS8KxPPInOXY2uju4-2" style="edgeStyle=orthogonalEdgeStyle;rounded=0;orthogonalLoop=1;jettySize=auto;html=1;exitX=0.5;exitY=0;exitDx=0;exitDy=0;entryX=0.5;entryY=1;entryDx=0;entryDy=0;endArrow=none;endFill=0;" parent="1" source="Tqil696aAraFWEGqHsqj-6" target="Tqil696aAraFWEGqHsqj-2" edge="1">
          <mxGeometry relative="1" as="geometry" />
        </mxCell>
        <mxCell id="Tqil696aAraFWEGqHsqj-6" value="Gallerie" style="swimlane;fontStyle=1;align=center;verticalAlign=top;childLayout=stackLayout;horizontal=1;startSize=26;horizontalStack=0;resizeParent=1;resizeParentMax=0;resizeLast=0;collapsible=1;marginBottom=0;whiteSpace=wrap;html=1;" parent="1" vertex="1">
          <mxGeometry x="2120" y="324" width="190" height="270" as="geometry" />
        </mxCell>
        <mxCell id="Tqil696aAraFWEGqHsqj-7" value="- GalleryID: int&lt;div&gt;- GalleryName: string&lt;/div&gt;&lt;div&gt;- GalleryNativeName: string&lt;/div&gt;&lt;div&gt;- GalleryCity: string&lt;/div&gt;&lt;div&gt;- Latitude: double&lt;/div&gt;&lt;div&gt;- Longitude: double&lt;/div&gt;&lt;div&gt;- GalleryWebSite: string&lt;/div&gt;" style="text;strokeColor=none;fillColor=none;align=left;verticalAlign=top;spacingLeft=4;spacingRight=4;overflow=hidden;rotatable=0;points=[[0,0.5],[1,0.5]];portConstraint=eastwest;whiteSpace=wrap;html=1;" parent="Tqil696aAraFWEGqHsqj-6" vertex="1">
          <mxGeometry y="26" width="190" height="104" as="geometry" />
        </mxCell>
        <mxCell id="Tqil696aAraFWEGqHsqj-8" value="" style="line;strokeWidth=1;fillColor=none;align=left;verticalAlign=middle;spacingTop=-1;spacingLeft=3;spacingRight=3;rotatable=0;labelPosition=right;points=[];portConstraint=eastwest;strokeColor=inherit;" parent="Tqil696aAraFWEGqHsqj-6" vertex="1">
          <mxGeometry y="130" width="190" height="8" as="geometry" />
        </mxCell>
        <mxCell id="Tqil696aAraFWEGqHsqj-9" value="+ __construct(...)&lt;div&gt;+ getGalleryID(): int&lt;/div&gt;&lt;div&gt;+ getGalleryName(): string&lt;/div&gt;&lt;div&gt;+ getGalleryNativeName(): string&lt;/div&gt;&lt;div&gt;+ getGalleryCity(): string&lt;/div&gt;&lt;div&gt;+ getLatitude(): double&lt;/div&gt;&lt;div&gt;+ getLongitude(): double&lt;/div&gt;&lt;div&gt;+ getGalleryWebSite(): string&lt;/div&gt;" style="text;strokeColor=none;fillColor=none;align=left;verticalAlign=top;spacingLeft=4;spacingRight=4;overflow=hidden;rotatable=0;points=[[0,0.5],[1,0.5]];portConstraint=eastwest;whiteSpace=wrap;html=1;" parent="Tqil696aAraFWEGqHsqj-6" vertex="1">
          <mxGeometry y="138" width="190" height="132" as="geometry" />
        </mxCell>
        <mxCell id="vkjPjzGxu5DDp9Rm1dVd-1" style="edgeStyle=orthogonalEdgeStyle;rounded=0;orthogonalLoop=1;jettySize=auto;html=1;exitX=0.5;exitY=0;exitDx=0;exitDy=0;entryX=0.64;entryY=1.001;entryDx=0;entryDy=0;entryPerimeter=0;endArrow=none;endFill=1;strokeColor=default;curved=0;startFill=0;" edge="1" parent="1" source="_smzAnieDaN4sx0Uvykq-24" target="_smzAnieDaN4sx0Uvykq-55">
          <mxGeometry relative="1" as="geometry" />
        </mxCell>
      </root>
    </mxGraphModel>
  </diagram>
</mxfile>
